# xmcd
#
# Track frame offsets: 
#        150
#        40454
#        63377
#        86027
#        115787
#        148626
#        160238
#        193010
#        209237
#        243381
#        265214
#        289875
#
# Disc length: 4169 seconds
#
# Revision: 1
# Processed by: cddbd v1.5.1PL0 Copyright (c) Steve Scherf et al.
# Submitted via: ExactAudioCopy v0.95a5
#
DISCID=bd10470c
DTITLE=Various Artist - Blue On Blues
DYEAR=2002
DGENRE=Blues
TTITLE0=Albert King - The Sky Is Crying
TTITLE1=Albert King - That's What The Blues Is All About
TTITLE2=Albert King - Rainin' In California
TTITLE3=Albert King - I'll Play The Blues For You
TTITLE4=Albert King - Stormy Monday
TTITLE5=Albert King - I Get Evil
TTITLE6=Freddie King - Mojo Boogie
TTITLE7=Freddie King - Please Accept My Love
TTITLE8=Freddie King - Hey Baby
TTITLE9=Freddie King - Hide Away
TTITLE10=Freddie King - Going Down
TTITLE11=Freddie King - Rock Me Baby
EXTD=YEAR: 2002
EXTT0=
EXTT1=
EXTT2=
EXTT3=
EXTT4=
EXTT5=
EXTT6=
EXTT7=
EXTT8=
EXTT9=
EXTT10=
EXTT11=
PLAYORDER=
